# xmcd
#
# Track frame offsets:
#	183
#	20290
#	47920
#	78533
#
# Disc length: 1422 seconds
#
# Revision: 0
# Processed by: cddbd v1.4PL0 Copyright (c) Steve Scherf et al.
# Submitted via: audiograbber 1.81.02
#
DISCID=28058c04
DTITLE=Taylor Dayne - Can't Get Enough Of Your Love
DYEAR=1993
DGENRE=Blues
TTITLE0=Can't Get Enough Of Your Love (Single Version)
TTITLE1=Can't Get Enough Of Your Love (C&C Extended Club Mix I)
TTITLE2=Can't Get Enough Of Your Love (C&C Extended Club Mix II)
TTITLE3=Can't Get Enough Of Your Love (C&C Special Edition Mix)
EXTD=
EXTT0=
EXTT1=
EXTT2=
EXTT3=
PLAYORDER=
